<svg width="32" height="32" viewBox="0 0 32 32" fill="none" xmlns="http://www.w3.org/2000/svg">
<rect width="32" height="32" rx="3.41333" fill="white"/>
<path d="M6.80403 22.6888H3.16766L9.32524 10.2767H13.9313L15.9677 22.6888H12.3313L11.1192 13.6949H11.0222L6.80403 22.6888ZM6.94948 17.7919H13.7858L13.3495 20.3131H6.51312L6.94948 17.7919ZM17.1631 22.6888L19.2237 10.2767H24.5813C25.5025 10.2767 26.2783 10.4585 26.9086 10.8222C27.5389 11.1858 27.9914 11.6969 28.2662 12.3555C28.5409 13.0141 28.6055 13.7838 28.4601 14.6646C28.3146 15.5616 27.9914 16.3353 27.4904 16.9858C26.9934 17.6323 26.3591 18.1313 25.5874 18.4828C24.8197 18.8303 23.9591 19.004 23.0055 19.004H19.8055L20.2419 16.3858H22.7631C23.1672 16.3858 23.5227 16.3171 23.8298 16.1798C24.1369 16.0383 24.3853 15.8404 24.5752 15.5858C24.7651 15.3272 24.8884 15.0202 24.9449 14.6646C25.0015 14.309 24.9752 14.006 24.8661 13.7555C24.7611 13.501 24.5793 13.307 24.3207 13.1737C24.0661 13.0363 23.7409 12.9676 23.3449 12.9676H22.1571L20.5328 22.6888H17.1631Z" fill="black"/>
<circle cx="26.88" cy="20.6222" r="1.56444" fill="black"/>
</svg>
